<?xml version="1.0" encoding="UTF-8" standalone="no"?>
<svg
   xmlns:dc="http://purl.org/dc/elements/1.1/"
   xmlns:cc="http://creativecommons.org/ns#"
   xmlns:rdf="http://www.w3.org/1999/02/22-rdf-syntax-ns#"
   xmlns:svg="http://www.w3.org/2000/svg"
   xmlns="http://www.w3.org/2000/svg"
   id="svg51"
   version="1.1"
   viewBox="0 0 1608 176"
   height="176px"
   width="1608px">
  <metadata
     id="metadata55">
    <rdf:RDF>
      <cc:Work
         rdf:about="">
        <dc:format>image/svg+xml</dc:format>
        <dc:type
           rdf:resource="http://purl.org/dc/dcmitype/StillImage" />
        <dc:title>logo_lockup_summer_of_code_horizontal_Roboto</dc:title>
      </cc:Work>
    </rdf:RDF>
  </metadata>
  <!-- Generator: Sketch 3.7.2 (28276) - http://www.bohemiancoding.com/sketch -->
  <title
     id="title2">logo_lockup_summer_of_code_horizontal_Roboto</title>
  <desc
     id="desc4">Created with Sketch.</desc>
  <defs
     id="defs6" />
  <g
     id="Group">
    <path
       style="fill:#fbbc05"
       d="m 62.3,150.1 25.7,25.7 25.7,-25.7 h 36.4 V 113.7 L 175.8,88 150.1,62.3 V 25.9 H 113.7 L 88,0.2 62.3,25.9 H 25.9 V 62.3 L 0.2,88 25.9,113.7 v 36.4 z"
       id="Shape" />
    <path
       style="fill:#ffffff"
       id="path11"
       d="m 90.8,60.5 -0.1,0.4 -11.9,52.5 -0.4,2 h 7.4 l 0.1,-0.4 11.9,-52.5 0.4,-2 z m -18.9,7.2 -1,0.7 -21.5,16.7 -1.4,1.1 v 3.4 l 1.4,1.1 21.5,16.7 1,0.7 v -9 L 57.4,88 71.9,76.7 Z m 32.2,0 v 9 L 118.6,88 104.1,99.3 v 9 l 1,-0.7 21.5,-16.7 1.4,-1.1 V 86.4 L 126.6,85.3 105,68.5 Z" />
    <circle
       id="Oval"
       cx="88"
       cy="88"
       r="58.7"
       style="fill:none;stroke:#ffffff;stroke-width:8" />
  </g>
  <g
     style="fill:#757575"
     id="Roboto">
    <path
       id="path16"
       d="m 704.9,96 c -10.1,-2.9 -17.5,-6.5 -22.1,-10.7 -4.6,-4.2 -6.9,-9.5 -6.9,-15.7 0,-7.1 2.8,-12.9 8.5,-17.5 5.7,-4.6 13,-6.9 22,-6.9 6.2,0 11.6,1.2 16.5,3.6 4.8,2.4 8.6,5.7 11.2,9.8 2.6,4.1 4,8.8 4,13.7 H 726 c 0,-5.4 -1.7,-9.7 -5.2,-12.8 -3.4,-3.1 -8.3,-4.7 -14.6,-4.7 -5.8,0 -10.4,1.3 -13.6,3.9 -3.2,2.6 -4.9,6.1 -4.9,10.7 0,3.7 1.5,6.8 4.6,9.3 3.1,2.5 8.4,4.8 15.8,6.9 7.4,2.1 13.3,4.4 17.5,6.9 4.2,2.5 7.3,5.5 9.4,8.8 2,3.4 3,7.3 3,11.9 0,7.3 -2.8,13.1 -8.5,17.4 -5.7,4.3 -13.2,6.6 -22.7,6.6 -6.2,0 -11.9,-1.2 -17.2,-3.5 -5.3,-2.3 -9.4,-5.6 -12.3,-9.7 -2.9,-4.1 -4.3,-8.8 -4.3,-14 h 11.9 c 0,5.4 2,9.7 6,12.8 4,3.1 9.3,4.7 16,4.7 6.2,0 11,-1.3 14.3,-3.8 3.3,-2.5 5,-6 5,-10.4 0,-4.4 -1.5,-7.8 -4.6,-10.2 -3.1,-2.4 -8.7,-4.7 -16.7,-7.1 z" />
    <path
       id="path18"
       d="m 792.5,129.4 c -4.4,5.2 -10.9,7.8 -19.5,7.8 -7.1,0 -12.5,-2.1 -16.2,-6.2 -3.7,-4.1 -5.6,-10.2 -5.6,-18.3 V 69.4 h 11.4 v 43 c 0,10.1 4.1,15.1 12.3,15.1 8.7,0 14.5,-3.2 17.3,-9.7 V 69.4 h 11.4 V 136 h -10.8 z" />
    <path
       id="path20"
       d="m 831.6,69.4 0.3,7.4 c 4.9,-5.7 11.5,-8.6 19.7,-8.6 9.3,0 15.6,3.6 19,10.7 2.2,-3.2 5.1,-5.8 8.6,-7.8 3.5,-2 7.7,-3 12.6,-3 14.6,0 22,7.7 22.3,23.2 V 136 H 902.7 V 92 c 0,-4.8 -1.1,-8.3 -3.3,-10.7 -2.2,-2.4 -5.8,-3.5 -11,-3.5 -4.2,0 -7.7,1.3 -10.5,3.8 -2.8,2.5 -4.4,5.9 -4.9,10.2 V 136 H 861.6 V 92.4 c 0,-9.7 -4.7,-14.5 -14.2,-14.5 -7.5,0 -12.6,3.2 -15.3,9.5 V 136 H 820.7 V 69.4 Z" />
    <path
       id="path22"
       d="m 942,69.4 0.3,7.4 c 4.9,-5.7 11.5,-8.6 19.7,-8.6 9.3,0 15.6,3.6 19,10.7 2.2,-3.2 5.1,-5.8 8.6,-7.8 3.5,-2 7.7,-3 12.6,-3 14.6,0 22,7.7 22.3,23.2 V 136 h -11.4 V 92 c 0,-4.8 -1.1,-8.3 -3.3,-10.7 -2.2,-2.4 -5.8,-3.5 -11,-3.5 -4.2,0 -7.7,1.3 -10.5,3.8 -2.8,2.5 -4.4,5.9 -4.9,10.2 V 136 H 972 V 92.4 c 0,-9.7 -4.7,-14.5 -14.2,-14.5 -7.5,0 -12.6,3.2 -15.3,9.5 V 136 H 931.1 V 69.4 Z" />
    <path
       id="path24"
       d="m 1069.4,137.2 c -9,0 -16.4,-3 -22,-8.9 -5.7,-5.9 -8.5,-13.9 -8.5,-23.8 v -2.1 c 0,-6.6 1.3,-12.5 3.8,-17.7 2.5,-5.2 6,-9.2 10.6,-12.2 4.5,-2.9 9.4,-4.4 14.7,-4.4 8.7,0 15.4,2.9 20.2,8.6 4.8,5.7 7.2,13.9 7.2,24.5 v 4.7 h -45.1 c 0.2,6.6 2.1,11.9 5.8,15.9 3.7,4 8.3,6.1 14,6.1 4,0 7.4,-0.8 10.2,-2.5 2.8,-1.6 5.2,-3.8 7.3,-6.5 l 7,5.4 c -5.7,8.6 -14.1,12.9 -25.2,12.9 z M 1068,77.5 c -4.6,0 -8.4,1.7 -11.6,5 -3.1,3.3 -5,8 -5.8,14.1 h 33.3 v -0.9 c -0.3,-5.8 -1.9,-10.3 -4.7,-13.4 -2.7,-3.2 -6.5,-4.8 -11.2,-4.8 z" />
    <path
       id="path26"
       d="m 1140.7,79.6 c -1.7,-0.3 -3.6,-0.4 -5.6,-0.4 -7.5,0 -12.5,3.2 -15.2,9.5 V 136 h -11.4 V 69.4 h 11.1 l 0.2,7.7 c 3.7,-5.9 9,-8.9 15.9,-8.9 2.2,0 3.9,0.3 5,0.9 z" />
    <path
       id="path28"
       d="m 1179.3,102.1 c 0,-6.5 1.3,-12.4 3.8,-17.6 2.6,-5.2 6.1,-9.2 10.7,-12.1 4.6,-2.9 9.8,-4.2 15.7,-4.2 9.1,0 16.4,3.1 22,9.4 5.6,6.3 8.4,14.6 8.4,25 v 0.8 c 0,6.5 -1.2,12.3 -3.7,17.4 -2.5,5.1 -6,9.2 -10.6,12 -4.6,2.9 -9.9,4.3 -15.9,4.3 -9,0 -16.3,-3.1 -21.9,-9.4 -5.6,-6.3 -8.4,-14.6 -8.4,-24.9 v -0.7 z m 11.5,1.3 c 0,7.4 1.7,13.3 5.1,17.8 3.4,4.5 8,6.7 13.8,6.7 5.8,0 10.4,-2.3 13.8,-6.8 3.4,-4.5 5.1,-10.9 5.1,-19 0,-7.3 -1.7,-13.2 -5.2,-17.7 -3.5,-4.5 -8.1,-6.8 -13.8,-6.8 -5.6,0 -10.2,2.2 -13.6,6.7 -3.5,4.4 -5.2,10.8 -5.2,19.1 z" />
    <path
       id="path30"
       d="M 1259.8,136 V 78.2 h -10.5 v -8.8 h 10.5 v -6.8 c 0,-7.1 1.9,-12.7 5.7,-16.5 3.8,-3.9 9.2,-5.8 16.2,-5.8 2.6,0 5.2,0.3 7.8,1 l -0.6,9.2 c -1.9,-0.4 -4,-0.6 -6.2,-0.6 -3.7,0 -6.5,1.1 -8.6,3.2 -2.1,2.1 -3,5.3 -3,9.3 v 7 h 14.2 v 8.8 h -14.2 V 136 Z" />
    <path
       id="path32"
       d="m 1396.8,107.5 c -1.1,9.5 -4.6,16.8 -10.5,21.9 -5.9,5.1 -13.7,7.7 -23.5,7.7 -10.6,0 -19.1,-3.8 -25.4,-11.4 -6.4,-7.6 -9.6,-17.7 -9.6,-30.5 v -8.6 c 0,-8.3 1.5,-15.6 4.5,-22 3,-6.3 7.2,-11.2 12.6,-14.6 5.4,-3.4 11.8,-5.1 18.9,-5.1 9.5,0 17.1,2.7 22.9,8 5.7,5.3 9.1,12.7 10,22.1 h -11.9 c -1,-7.2 -3.3,-12.3 -6.7,-15.6 -3.4,-3.3 -8.2,-4.8 -14.4,-4.8 -7.5,0 -13.5,2.8 -17.7,8.4 -4.3,5.6 -6.4,13.5 -6.4,23.8 v 8.7 c 0,9.7 2,17.5 6.1,23.2 4.1,5.7 9.7,8.6 17,8.6 6.6,0 11.6,-1.5 15.1,-4.5 3.5,-3 5.8,-8.2 7,-15.5 h 12 z" />
    <path
       id="path34"
       d="m 1408.1,102.1 c 0,-6.5 1.3,-12.4 3.8,-17.6 2.6,-5.2 6.1,-9.2 10.7,-12.1 4.6,-2.9 9.8,-4.2 15.7,-4.2 9.1,0 16.4,3.1 22,9.4 5.6,6.3 8.4,14.6 8.4,25 v 0.8 c 0,6.5 -1.2,12.3 -3.7,17.4 -2.5,5.1 -6,9.2 -10.6,12 -4.6,2.9 -9.9,4.3 -15.9,4.3 -9,0 -16.3,-3.1 -21.9,-9.4 -5.6,-6.3 -8.4,-14.6 -8.4,-24.9 v -0.7 z m 11.5,1.3 c 0,7.4 1.7,13.3 5.1,17.8 3.4,4.5 8,6.7 13.8,6.7 5.8,0 10.4,-2.3 13.8,-6.8 3.4,-4.5 5.1,-10.9 5.1,-19 0,-7.3 -1.7,-13.2 -5.2,-17.7 -3.5,-4.5 -8.1,-6.8 -13.8,-6.8 -5.6,0 -10.2,2.2 -13.6,6.7 -3.5,4.4 -5.2,10.8 -5.2,19.1 z" />
    <path
       id="path36"
       d="m 1480.2,102.1 c 0,-10.2 2.4,-18.4 7.3,-24.6 4.9,-6.2 11.2,-9.3 19,-9.3 7.8,0 14,2.7 18.5,8 V 41.5 h 11.4 V 136 h -10.5 l -0.6,-7.1 c -4.6,5.6 -10.9,8.4 -19,8.4 -7.7,0 -14,-3.2 -18.9,-9.5 -4.9,-6.3 -7.3,-14.6 -7.3,-24.7 v -1 z m 11.4,1.3 c 0,7.5 1.6,13.5 4.7,17.7 3.1,4.3 7.4,6.4 12.9,6.4 7.2,0 12.5,-3.2 15.8,-9.7 V 87.2 c -3.4,-6.3 -8.6,-9.4 -15.7,-9.4 -5.6,0 -9.9,2.2 -13,6.5 -3.1,4.3 -4.7,10.7 -4.7,19.1 z" />
    <path
       id="path38"
       d="m 1581.7,137.2 c -9,0 -16.4,-3 -22,-8.9 -5.7,-5.9 -8.5,-13.9 -8.5,-23.8 v -2.1 c 0,-6.6 1.3,-12.5 3.8,-17.7 2.5,-5.2 6,-9.2 10.6,-12.2 4.5,-2.9 9.4,-4.4 14.7,-4.4 8.7,0 15.4,2.9 20.2,8.6 4.8,5.7 7.2,13.9 7.2,24.5 v 4.7 h -45.1 c 0.2,6.6 2.1,11.9 5.8,15.9 3.7,4 8.3,6.1 14,6.1 4,0 7.4,-0.8 10.2,-2.5 2.8,-1.6 5.2,-3.8 7.3,-6.5 l 7,5.4 c -5.7,8.6 -14.1,12.9 -25.2,12.9 z m -1.4,-59.7 c -4.6,0 -8.4,1.7 -11.6,5 -3.1,3.3 -5,8 -5.8,14.1 h 33.3 v -0.9 c -0.3,-5.8 -1.9,-10.3 -4.7,-13.4 -2.7,-3.2 -6.5,-4.8 -11.2,-4.8 z" />
  </g>
  <path
     style="fill:#757575"
     id="Google"
     d="m 316.12939,47.902832 c 8.91118,4.679385 14.3636,12.878359 16.35743,24.597168 h -12.02393 c -1.46485,-6.55114 -4.49623,-11.322007 -9.09424,-14.312744 -4.598,-2.990738 -10.39628,-4.486084 -17.39502,-4.486084 -8.30082,0 -15.28928,3.112762 -20.96557,9.338379 -5.6763,6.225617 -8.51441,15.502868 -8.51441,27.832031 0,10.660858 2.33966,19.337938 7.01904,26.031498 4.67939,6.69355 12.30871,10.04028 22.88819,10.04028 8.09737,0 14.801,-2.34983 20.11108,-7.04956 5.31009,-4.69973 8.02613,-12.29853 8.1482,-22.79663 H 294.58398 V 87.026367 h 39.36768 V 135 h -7.8125 l -2.92969,-11.53565 c -4.10972,4.51663 -7.75145,7.64974 -10.92529,9.39942 -5.33043,3.01108 -12.10526,4.5166 -20.32471,4.5166 -10.62017,0 -19.755,-3.43828 -27.40478,-10.31494 -8.34152,-8.62634 -12.51221,-20.46705 -12.51221,-35.522461 0,-15.014724 4.06897,-26.95715 12.20703,-35.827637 7.73116,-8.463584 17.74083,-12.695312 30.0293,-12.695312 8.42289,0 15.70635,1.627587 21.85058,4.882812 z m 76.08033,71.746828 c 2.7059,-5.51354 4.05883,-11.64751 4.05883,-18.4021 0,-6.10355 -0.97655,-11.067691 -2.92968,-14.892579 -3.09247,-6.022166 -8.42282,-9.033204 -15.99121,-9.033204 -6.71391,0 -11.59667,2.563451 -14.64844,7.69043 -3.05177,5.126979 -4.57764,11.311813 -4.57764,18.554683 0,6.95805 1.52587,12.75633 4.57764,17.39502 3.05177,4.6387 7.89385,6.95801 14.52637,6.95801 7.28356,0 12.27822,-2.75672 14.98413,-8.27026 z m 6.80542,-43.487551 c 5.81871,5.615263 8.72802,13.875271 8.72802,24.780271 0,10.53879 -2.56345,19.24639 -7.69043,26.12305 -5.12697,6.87666 -13.08181,10.31494 -23.86474,10.31494 -8.99256,0 -16.1336,-3.04155 -21.42334,-9.12476 -5.28974,-6.0832 -7.93457,-14.25165 -7.93457,-24.50561 0,-10.98638 2.78724,-19.734668 8.36182,-26.245117 5.57457,-6.510449 13.06147,-9.765625 22.46093,-9.765625 8.4229,0 15.54359,2.807589 21.36231,8.422851 z m 62.71362,43.487551 c 2.7059,-5.51354 4.05884,-11.64751 4.05884,-18.4021 0,-6.10355 -0.97656,-11.067691 -2.92969,-14.892579 -3.09246,-6.022166 -8.42281,-9.033204 -15.99121,-9.033204 -6.7139,0 -11.59667,2.563451 -14.64844,7.69043 -3.05177,5.126979 -4.57764,11.311813 -4.57764,18.554683 0,6.95805 1.52587,12.75633 4.57764,17.39502 3.05177,4.6387 7.89385,6.95801 14.52637,6.95801 7.28356,0 12.27822,-2.75672 14.98413,-8.27026 z m 6.80542,-43.487551 c 5.81871,5.615263 8.72803,13.875271 8.72803,24.780271 0,10.53879 -2.56345,19.24639 -7.69043,26.12305 -5.12698,6.87666 -13.08182,10.31494 -23.86475,10.31494 -8.99256,0 -16.1336,-3.04155 -21.42334,-9.12476 -5.28974,-6.0832 -7.93457,-14.25165 -7.93457,-24.50561 0,-10.98638 2.78724,-19.734668 8.36182,-26.245117 5.57457,-6.510449 13.06147,-9.765625 22.46093,-9.765625 8.4229,0 15.5436,2.807589 21.36231,8.422851 z m 58.28857,-3.90625 c 2.07521,1.424161 4.19107,3.499336 6.34766,6.225586 v -8.239746 h 10.13184 v 59.448241 c 0,8.30082 -1.2207,14.85186 -3.66211,19.65332 -4.55732,8.87049 -13.16319,13.30567 -25.81787,13.30567 -7.03943,0 -12.95978,-1.57673 -17.76124,-4.73023 -4.80145,-3.1535 -7.48697,-8.08712 -8.05664,-14.80102 h 11.16944 c 0.52897,2.9297 1.5869,5.18798 3.17383,6.7749 2.4821,2.44142 6.38832,3.66211 11.71875,3.66211 8.42289,0 13.93634,-2.97035 16.54052,-8.91113 1.54623,-3.49937 2.2583,-9.74524 2.13623,-18.7378 -2.19727,3.33661 -4.8421,5.81868 -7.93457,7.44629 -3.09246,1.62761 -7.18177,2.44141 -12.26806,2.44141 -7.08012,0 -13.27512,-2.51259 -18.58521,-7.53784 -5.31008,-5.02526 -7.96509,-13.33613 -7.96509,-24.93287 0,-10.94569 2.67535,-19.490525 8.02613,-25.634762 5.35077,-6.144236 11.81026,-9.216308 19.37866,-9.216308 5.12698,0 9.60284,1.26138 13.42773,3.784179 z m 1.34278,11.779785 c -3.33661,-3.906269 -7.58868,-5.859375 -12.75635,-5.859375 -7.73116,0 -13.02082,3.621384 -15.86914,10.864258 -1.50554,3.865583 -2.2583,8.931443 -2.2583,15.197753 0,7.36495 1.49534,12.96995 4.48608,16.81519 2.99074,3.84523 7.00885,5.76782 12.05445,5.76782 7.89391,0 13.44806,-3.56035 16.66259,-10.68115 1.79038,-4.02834 2.68555,-8.728 2.68555,-14.09912 0,-8.09738 -1.66828,-14.099106 -5.00488,-18.005376 z m 31.98242,-38.696289 h 10.98633 V 135 h -10.98633 z m 68.17627,26.09253 c 4.35386,2.176931 7.67007,4.994693 9.94873,8.453369 2.19728,3.295915 3.6621,7.141091 4.39453,11.535644 0.65105,3.011082 0.97656,7.812462 0.97656,14.404302 h -47.9126 c 0.20346,6.63252 1.77001,11.95269 4.69971,15.96069 2.9297,4.00799 7.46661,6.01196 13.61084,6.01196 5.73734,0 10.31493,-1.89207 13.73291,-5.67627 1.95314,-2.19728 3.33659,-4.74038 4.15039,-7.62939 h 10.80323 c -0.28484,2.40073 -1.23087,5.07607 -2.83814,8.02612 -1.60727,2.95005 -3.40779,5.36091 -5.40161,7.23267 -3.33661,3.25522 -7.46661,5.45246 -12.39014,6.59179 -2.64487,0.65105 -5.63556,0.97657 -8.97217,0.97657 -8.13806,0 -15.03496,-2.96018 -20.69091,-8.88062 -5.65596,-5.92044 -8.48389,-14.21097 -8.48389,-24.87183 0,-10.4981 2.84828,-19.022586 8.54492,-25.573726 5.69664,-6.55114 13.14286,-9.82666 22.33887,-9.82666 4.63869,0 9.13491,1.088449 13.48877,3.265381 z m 4.02832,25.665285 c -0.44759,-4.76077 -1.48518,-8.565255 -3.11279,-11.413576 -3.01109,-5.28974 -8.03626,-7.934571 -15.07569,-7.934571 -5.0456,0 -9.27732,1.820864 -12.69531,5.462647 -3.41799,3.641783 -5.22868,8.270236 -5.43213,13.8855 z" />
</svg>
